<?xml version="1.0" encoding="UTF-8" standalone="no"?>
<svg
   xmlns:dc="http://purl.org/dc/elements/1.1/"
   xmlns:cc="http://creativecommons.org/ns#"
   xmlns:rdf="http://www.w3.org/1999/02/22-rdf-syntax-ns#"
   xmlns:svg="http://www.w3.org/2000/svg"
   xmlns="http://www.w3.org/2000/svg"
   version="1.1"
   id="svg2"
   viewBox="0 0 53.000072 52.049404"
   height="52.049404"
   width="53.000072">
  <defs
     id="defs4" />
  <metadata
     id="metadata7">
    <rdf:RDF>
      <cc:Work
         rdf:about="">
        <dc:format>image/svg+xml</dc:format>
        <dc:type
           rdf:resource="http://purl.org/dc/dcmitype/StillImage" />
        <dc:title></dc:title>
      </cc:Work>
    </rdf:RDF>
  </metadata>
  <g
     transform="translate(-662.56212,-889.13956)"
     id="layer1">
    <g
       transform="matrix(0.70530039,0,0,0.70530039,195.2568,277.36802)"
       id="g8277">
      <path
         style="fill:#008cff;fill-opacity:0.60000002;stroke:none;stroke-width:85;stroke-linecap:round;stroke-linejoin:round;stroke-miterlimit:4;stroke-dasharray:none;stroke-opacity:1"
         d="m 699.97494,880.79406 a 24.169946,24.169946 0 0 0 -16.49198,6.69253 l 3.34432,3.34432 a 19.425707,19.425707 0 0 1 13.17878,-5.2928 19.425707,19.425707 0 0 1 12.93491,4.84396 l 3.35601,-3.35601 a 24.169946,24.169946 0 0 0 -16.32204,-6.232 z"
         id="path8275" />
      <path
         style="fill:#008cff;fill-opacity:0.60000002;stroke:none;stroke-width:85;stroke-linecap:round;stroke-linejoin:round;stroke-miterlimit:4;stroke-dasharray:none;stroke-opacity:1"
         d="m 723.29955,898.14222 -4.58838,1.22979 a 19.425707,19.425707 0 0 1 0.8484,5.41993 l 0,0.17124 a 19.425707,19.425707 0 0 1 -14.31259,18.73753 l 1.222,4.55854 a 24.169946,24.169946 0 0 0 17.83464,-23.29607 l 0,-0.21275 a 24.169946,24.169946 0 0 0 -1.00407,-6.60821 z"
         id="path8269" />
      <path
         style="fill:#008cff;fill-opacity:0.60000002;stroke:none;stroke-width:85;stroke-linecap:round;stroke-linejoin:round;stroke-miterlimit:4;stroke-dasharray:none;stroke-opacity:1"
         d="m 676.89292,898.37573 a 24.169946,24.169946 0 0 0 -0.92884,6.69383 24.169946,24.169946 0 0 0 16.9564,22.93283 l 1.2259,-4.57282 a 19.425707,19.425707 0 0 1 -13.43824,-18.38077 19.425707,19.425707 0 0 1 0.77187,-5.44458 l -4.58709,-1.22849 z"
         id="path8267" />
      <path
         style="fill:#008cff;fill-opacity:1;stroke:none;stroke-width:85;stroke-linecap:round;stroke-linejoin:round;stroke-miterlimit:4;stroke-dasharray:none;stroke-opacity:1"
         id="path8079"
         d="m 717.89938,904.9632 a 17.765223,17.765223 0 0 1 -17.72608,17.76518 17.765223,17.765223 0 0 1 -17.80419,-17.68689 17.765223,17.765223 0 0 1 17.64761,-17.84313 17.765223,17.765223 0 0 1 17.88197,17.60826" />
      <path
         style="fill:#008cff;fill-opacity:0.3019608;stroke:none;stroke-width:85;stroke-linecap:round;stroke-linejoin:round;stroke-miterlimit:4;stroke-dasharray:none;stroke-opacity:1"
         d="m 699.92825,873.79667 a 31.167698,31.167698 0 0 0 -21.38913,8.74608 l 3.75814,3.75815 a 25.830429,25.830429 0 0 1 17.66601,-7.16732 25.830429,25.830429 0 0 1 17.50513,6.72107 l 3.78409,-3.7841 a 31.167698,31.167698 0 0 0 -21.32424,-8.27388 z"
         id="path8263" />
      <path
         style="fill:#008cff;fill-opacity:0.3019608;stroke:none;stroke-width:85;stroke-linecap:round;stroke-linejoin:round;stroke-miterlimit:4;stroke-dasharray:none;stroke-opacity:1"
         d="m 730.04786,896.33385 -5.15529,1.38158 a 25.830429,25.830429 0 0 1 1.07153,7.02073 l 0,0.22702 a 25.830429,25.830429 0 0 1 -19.06054,24.92023 l 1.3738,5.12674 a 31.167698,31.167698 0 0 0 23.02493,-30.04697 l -0.002,-0.27502 a 31.167698,31.167698 0 0 0 -1.25315,-8.35431 z"
         id="path8257" />
      <path
         style="fill:#008cff;fill-opacity:0.3019608;stroke:none;stroke-width:85;stroke-linecap:round;stroke-linejoin:round;stroke-miterlimit:4;stroke-dasharray:none;stroke-opacity:1"
         d="m 670.14202,896.56736 a 31.167698,31.167698 0 0 0 -1.17531,8.53333 31.167698,31.167698 0 0 0 22.14279,29.66298 l 1.3751,-5.13193 a 25.830429,25.830429 0 0 1 -18.181,-24.55439 25.830429,25.830429 0 0 1 0.99759,-7.12842 l -5.15917,-1.38157 z"
         id="path8255" />
      <path
         style="fill:#008cff;fill-opacity:0.10196079;stroke:none;stroke-width:85;stroke-linecap:round;stroke-linejoin:round;stroke-miterlimit:4;stroke-dasharray:none;stroke-opacity:1"
         d="m 699.88543,867.39214 a 37.572421,37.572421 0 0 0 -25.87113,10.6258 l 3.16401,3.164 a 33.065394,33.065394 0 0 1 22.73696,-9.28314 33.065394,33.065394 0 0 1 22.6669,8.84208 l 3.20551,-3.20553 a 37.572421,37.572421 0 0 0 -25.90225,-10.14321 z"
         id="path8251" />
      <path
         style="fill:#008cff;fill-opacity:0.10196079;stroke:none;stroke-width:85;stroke-linecap:round;stroke-linejoin:round;stroke-miterlimit:4;stroke-dasharray:none;stroke-opacity:1"
         d="m 736.22537,894.67856 -4.34968,1.16622 a 33.065394,33.065394 0 0 1 1.32319,8.82651 l 0.002,0.29189 a 33.065394,33.065394 0 0 1 -24.42471,31.90594 l 1.15715,4.31985 a 37.572421,37.572421 0 0 0 27.77419,-36.22579 l -0.002,-0.3308 a 37.572421,37.572421 0 0 0 -1.48017,-9.95382 z"
         id="path8245" />
      <path
         style="fill:#008cff;fill-opacity:0.10196079;stroke:none;stroke-width:85;stroke-linecap:round;stroke-linejoin:round;stroke-miterlimit:4;stroke-dasharray:none;stroke-opacity:1"
         d="m 663.9632,894.91076 a 37.572421,37.572421 0 0 0 -1.40104,10.21847 37.572421,37.572421 0 0 0 26.88947,35.82233 l 1.15973,-4.33281 a 33.065394,33.065394 0 0 1 -23.54254,-31.51028 33.065394,33.065394 0 0 1 1.25315,-9.02888 l -4.35877,-1.16883 z"
         id="path8243" />
    </g>
  </g>
</svg>
