<?xml version="1.0" encoding="UTF-8" standalone="no"?>
<svg
   xmlns:dc="http://purl.org/dc/elements/1.1/"
   xmlns:cc="http://creativecommons.org/ns#"
   xmlns:rdf="http://www.w3.org/1999/02/22-rdf-syntax-ns#"
   xmlns:svg="http://www.w3.org/2000/svg"
   xmlns="http://www.w3.org/2000/svg"
   version="1.1"
   id="svg2"
   viewBox="0 0 56.000225 54.995815"
   height="54.995815"
   width="56.000225">
  <defs
     id="defs4" />
  <metadata
     id="metadata7">
    <rdf:RDF>
      <cc:Work
         rdf:about="">
        <dc:format>image/svg+xml</dc:format>
        <dc:type
           rdf:resource="http://purl.org/dc/dcmitype/StillImage" />
        <dc:title></dc:title>
      </cc:Work>
    </rdf:RDF>
  </metadata>
  <g
     transform="translate(-662.56212,-886.19315)"
     id="layer1">
    <g
       transform="matrix(0.70530039,0,0,0.70530039,195.2568,277.36802)"
       id="g8277">
      <path
         style="fill:#ffbf00;fill-opacity:0.60000002;stroke:none;stroke-width:85;stroke-linecap:round;stroke-linejoin:round;stroke-miterlimit:4;stroke-dasharray:none;stroke-opacity:1"
         d="m 702.09281,877.37523 a 25.538158,25.538158 0 0 0 -17.42556,7.07138 l 3.53363,3.53363 a 20.525357,20.525357 0 0 1 13.92481,-5.59241 20.525357,20.525357 0 0 1 13.66713,5.11816 l 3.54598,-3.54598 a 25.538158,25.538158 0 0 0 -17.24599,-6.58478 z"
         id="path8275" />
      <path
         style="fill:#ffbf00;fill-opacity:0.60000002;stroke:none;stroke-width:85;stroke-linecap:round;stroke-linejoin:round;stroke-miterlimit:4;stroke-dasharray:none;stroke-opacity:1"
         d="m 726.73777,895.70543 -4.84812,1.29941 a 20.525357,20.525357 0 0 1 0.89643,5.72674 l 0,0.18093 a 20.525357,20.525357 0 0 1 -15.1228,19.79822 l 1.29118,4.81659 a 25.538158,25.538158 0 0 0 18.84422,-24.61481 l 0,-0.22479 a 25.538158,25.538158 0 0 0 -1.06091,-6.98229 z"
         id="path8269" />
      <path
         style="fill:#ffbf00;fill-opacity:0.60000002;stroke:none;stroke-width:85;stroke-linecap:round;stroke-linejoin:round;stroke-miterlimit:4;stroke-dasharray:none;stroke-opacity:1"
         d="m 677.70416,895.95216 a 25.538158,25.538158 0 0 0 -0.98142,7.07275 25.538158,25.538158 0 0 0 17.91627,24.23101 l 1.29529,-4.83167 a 20.525357,20.525357 0 0 1 -14.19895,-19.42127 20.525357,20.525357 0 0 1 0.81556,-5.75279 l -4.84675,-1.29803 z"
         id="path8267" />
      <path
         style="fill:#ffbf00;fill-opacity:1;stroke:none;stroke-width:85;stroke-linecap:round;stroke-linejoin:round;stroke-miterlimit:4;stroke-dasharray:none;stroke-opacity:1"
         id="path8079"
         d="m 721.03192,902.91254 a 18.770876,18.770876 0 0 1 -18.72951,18.77083 18.770876,18.770876 0 0 1 -18.81206,-18.68811 18.770876,18.770876 0 0 1 18.64661,-18.85319 18.770876,18.770876 0 0 1 18.89423,18.60502" />
      <path
         style="fill:#ffbf00;fill-opacity:0.3019608;stroke:none;stroke-width:85;stroke-linecap:round;stroke-linejoin:round;stroke-miterlimit:4;stroke-dasharray:none;stroke-opacity:1"
         d="m 702.04347,869.98173 a 32.932039,32.932039 0 0 0 -22.59992,9.24118 l 3.97088,3.97089 a 27.292638,27.292638 0 0 1 18.66604,-7.57305 27.292638,27.292638 0 0 1 18.49606,7.10153 l 3.9983,-3.9983 a 32.932039,32.932039 0 0 0 -22.53136,-8.74225 z"
         id="path8263" />
      <path
         style="fill:#ffbf00;fill-opacity:0.3019608;stroke:none;stroke-width:85;stroke-linecap:round;stroke-linejoin:round;stroke-miterlimit:4;stroke-dasharray:none;stroke-opacity:1"
         d="m 733.86809,893.79469 -5.44712,1.45979 a 27.292638,27.292638 0 0 1 1.13219,7.41816 l 0,0.23987 a 27.292638,27.292638 0 0 1 -20.13952,26.33091 l 1.45157,5.41696 a 32.932039,32.932039 0 0 0 24.32832,-31.74787 l -0.002,-0.29059 a 32.932039,32.932039 0 0 0 -1.32409,-8.82723 z"
         id="path8257" />
      <path
         style="fill:#ffbf00;fill-opacity:0.3019608;stroke:none;stroke-width:85;stroke-linecap:round;stroke-linejoin:round;stroke-miterlimit:4;stroke-dasharray:none;stroke-opacity:1"
         d="m 670.5711,894.04142 a 32.932039,32.932039 0 0 0 -1.24184,9.01638 32.932039,32.932039 0 0 0 23.39625,31.34215 l 1.45294,-5.42244 a 27.292638,27.292638 0 0 1 -19.21019,-25.94437 27.292638,27.292638 0 0 1 1.05406,-7.53194 l -5.45122,-1.45978 z"
         id="path8255" />
      <path
         style="fill:#ffbf00;fill-opacity:0.10196079;stroke:none;stroke-width:85;stroke-linecap:round;stroke-linejoin:round;stroke-miterlimit:4;stroke-dasharray:none;stroke-opacity:1"
         d="m 701.99823,863.21465 a 39.69932,39.69932 0 0 0 -27.33564,11.2273 l 3.34311,3.34311 a 34.93716,34.93716 0 0 1 24.02406,-9.80864 34.93716,34.93716 0 0 1 23.95002,9.34261 l 3.38697,-3.38698 a 39.69932,39.69932 0 0 0 -27.36852,-10.7174 z"
         id="path8251" />
      <path
         style="fill:#ffbf00;fill-opacity:0.10196079;stroke:none;stroke-width:85;stroke-linecap:round;stroke-linejoin:round;stroke-miterlimit:4;stroke-dasharray:none;stroke-opacity:1"
         d="m 740.3953,892.0457 -4.59591,1.23224 a 34.93716,34.93716 0 0 1 1.3981,9.32616 l 0.002,0.30841 a 34.93716,34.93716 0 0 1 -25.80734,33.71207 l 1.22265,4.56439 a 39.69932,39.69932 0 0 0 29.34643,-38.27646 l -0.002,-0.34953 a 39.69932,39.69932 0 0 0 -1.56396,-10.51728 z"
         id="path8245" />
      <path
         style="fill:#ffbf00;fill-opacity:0.10196079;stroke:none;stroke-width:85;stroke-linecap:round;stroke-linejoin:round;stroke-miterlimit:4;stroke-dasharray:none;stroke-opacity:1"
         d="m 664.04251,892.29104 a 39.69932,39.69932 0 0 0 -1.48035,10.79692 39.69932,39.69932 0 0 0 28.41163,37.85016 l 1.22538,-4.57808 a 34.93716,34.93716 0 0 1 -24.87523,-33.29401 34.93716,34.93716 0 0 1 1.32408,-9.53999 l -4.60551,-1.235 z"
         id="path8243" />
    </g>
  </g>
</svg>
