<?xml version="1.0" encoding="UTF-8" standalone="no"?>
<svg
   xmlns:dc="http://purl.org/dc/elements/1.1/"
   xmlns:cc="http://creativecommons.org/ns#"
   xmlns:rdf="http://www.w3.org/1999/02/22-rdf-syntax-ns#"
   xmlns:svg="http://www.w3.org/2000/svg"
   xmlns="http://www.w3.org/2000/svg"
   version="1.1"
   id="svg2"
   viewBox="0 0 66.000221 64.816711"
   height="64.816711"
   width="66.000221">
  <defs
     id="defs4" />
  <metadata
     id="metadata7">
    <rdf:RDF>
      <cc:Work
         rdf:about="">
        <dc:format>image/svg+xml</dc:format>
        <dc:type
           rdf:resource="http://purl.org/dc/dcmitype/StillImage" />
        <dc:title></dc:title>
      </cc:Work>
    </rdf:RDF>
  </metadata>
  <g
     transform="translate(-662.56212,-876.37225)"
     id="layer1">
    <g
       transform="matrix(0.70530039,0,0,0.70530039,195.2568,277.36802)"
       id="g8277">
      <path
         style="fill:#ff0000;fill-opacity:0.60000002;stroke:none;stroke-width:85;stroke-linecap:round;stroke-linejoin:round;stroke-miterlimit:4;stroke-dasharray:none;stroke-opacity:1"
         d="m 709.15201,865.97967 a 30.098642,30.098642 0 0 0 -20.53733,8.33415 l 4.16465,4.16465 a 24.190679,24.190679 0 0 1 16.41144,-6.59107 24.190679,24.190679 0 0 1 16.10774,6.03213 l 4.1792,-4.1792 a 30.098642,30.098642 0 0 0 -20.3257,-7.76066 z"
         id="path8275" />
      <path
         style="fill:#ff0000;fill-opacity:0.60000002;stroke:none;stroke-width:85;stroke-linecap:round;stroke-linejoin:round;stroke-miterlimit:4;stroke-dasharray:none;stroke-opacity:1"
         d="m 738.19796,887.58319 -5.71388,1.53146 a 24.190679,24.190679 0 0 1 1.05651,6.74939 l 0,0.21324 a 24.190679,24.190679 0 0 1 -17.82336,23.33369 l 1.52176,5.67672 a 30.098642,30.098642 0 0 0 22.20933,-29.01041 l 0,-0.26493 a 30.098642,30.098642 0 0 0 -1.25036,-8.22916 z"
         id="path8269" />
      <path
         style="fill:#ff0000;fill-opacity:0.60000002;stroke:none;stroke-width:85;stroke-linecap:round;stroke-linejoin:round;stroke-miterlimit:4;stroke-dasharray:none;stroke-opacity:1"
         d="m 680.40815,887.87398 a 30.098642,30.098642 0 0 0 -1.15667,8.33577 30.098642,30.098642 0 0 0 21.11567,28.55807 l 1.5266,-5.69449 a 24.190679,24.190679 0 0 1 -16.73453,-22.88943 24.190679,24.190679 0 0 1 0.96119,-6.78009 l -5.71226,-1.52983 z"
         id="path8267" />
      <path
         style="fill:#ff0000;fill-opacity:1;stroke:none;stroke-width:85;stroke-linecap:round;stroke-linejoin:round;stroke-miterlimit:4;stroke-dasharray:none;stroke-opacity:1"
         id="path8079"
         d="m 731.47317,896.07733 a 22.12289,22.12289 0 0 1 -22.07414,22.12284 22.12289,22.12289 0 0 1 -22.17142,-22.02534 22.12289,22.12289 0 0 1 21.97643,-22.21991 22.12289,22.12289 0 0 1 22.26827,21.92742" />
      <path
         style="fill:#ff0000;fill-opacity:0.3019608;stroke:none;stroke-width:85;stroke-linecap:round;stroke-linejoin:round;stroke-miterlimit:4;stroke-dasharray:none;stroke-opacity:1"
         d="m 709.09386,857.26587 a 38.812888,38.812888 0 0 0 -26.6357,10.89143 l 4.67998,4.67999 a 32.166429,32.166429 0 0 1 21.99933,-8.92541 32.166429,32.166429 0 0 1 21.799,8.36969 l 4.7123,-4.7123 a 38.812888,38.812888 0 0 0 -26.55491,-10.3034 z"
         id="path8263" />
      <path
         style="fill:#ff0000;fill-opacity:0.3019608;stroke:none;stroke-width:85;stroke-linecap:round;stroke-linejoin:round;stroke-miterlimit:4;stroke-dasharray:none;stroke-opacity:1"
         d="m 746.60157,885.33124 -6.41984,1.72047 a 32.166429,32.166429 0 0 1 1.33438,8.74286 l 0,0.28271 a 32.166429,32.166429 0 0 1 -23.73594,31.03296 l 1.71078,6.3843 a 38.812888,38.812888 0 0 0 28.67276,-37.41726 l -0.002,-0.34248 a 38.812888,38.812888 0 0 0 -1.56053,-10.40356 z"
         id="path8257" />
      <path
         style="fill:#ff0000;fill-opacity:0.3019608;stroke:none;stroke-width:85;stroke-linecap:round;stroke-linejoin:round;stroke-miterlimit:4;stroke-dasharray:none;stroke-opacity:1"
         d="m 672.0013,885.62203 a 38.812888,38.812888 0 0 0 -1.4636,10.62648 38.812888,38.812888 0 0 0 27.57425,36.93909 l 1.7124,-6.39075 a 32.166429,32.166429 0 0 1 -22.64066,-30.5774 32.166429,32.166429 0 0 1 1.24229,-8.87696 l -6.42468,-1.72046 z"
         id="path8255" />
      <path
         style="fill:#ff0000;fill-opacity:0.10196079;stroke:none;stroke-width:85;stroke-linecap:round;stroke-linejoin:round;stroke-miterlimit:4;stroke-dasharray:none;stroke-opacity:1"
         d="m 709.04054,849.29036 a 46.788638,46.788638 0 0 0 -32.2171,13.23222 l 3.9401,3.94011 a 41.176074,41.176074 0 0 1 28.31416,-11.56022 41.176074,41.176074 0 0 1 28.22691,11.01096 l 3.9918,-3.9918 a 46.788638,46.788638 0 0 0 -32.25587,-12.63127 z"
         id="path8251" />
      <path
         style="fill:#ff0000;fill-opacity:0.10196079;stroke:none;stroke-width:85;stroke-linecap:round;stroke-linejoin:round;stroke-miterlimit:4;stroke-dasharray:none;stroke-opacity:1"
         d="m 754.29439,883.26993 -5.41663,1.45228 a 41.176074,41.176074 0 0 1 1.64776,10.99159 l 0.002,0.36348 a 41.176074,41.176074 0 0 1 -30.4159,39.73221 l 1.44099,5.37948 a 46.788638,46.788638 0 0 0 34.58697,-45.11169 l -0.002,-0.41195 a 46.788638,46.788638 0 0 0 -1.84324,-12.3954 z"
         id="path8245" />
      <path
         style="fill:#ff0000;fill-opacity:0.10196079;stroke:none;stroke-width:85;stroke-linecap:round;stroke-linejoin:round;stroke-miterlimit:4;stroke-dasharray:none;stroke-opacity:1"
         d="m 664.30687,883.55908 a 46.788638,46.788638 0 0 0 -1.7447,12.72498 46.788638,46.788638 0 0 0 33.48524,44.60927 l 1.44421,-5.39562 a 41.176074,41.176074 0 0 1 -29.31734,-39.2395 41.176074,41.176074 0 0 1 1.56053,-11.24359 l -5.42794,-1.45554 z"
         id="path8243" />
    </g>
  </g>
</svg>
