<?xml version="1.0" encoding="UTF-8" standalone="no"?>
<!-- Created with Inkscape (http://www.inkscape.org/) -->

<svg
   xmlns:dc="http://purl.org/dc/elements/1.1/"
   xmlns:cc="http://creativecommons.org/ns#"
   xmlns:rdf="http://www.w3.org/1999/02/22-rdf-syntax-ns#"
   xmlns:svg="http://www.w3.org/2000/svg"
   xmlns="http://www.w3.org/2000/svg"
   xmlns:sodipodi="http://sodipodi.sourceforge.net/DTD/sodipodi-0.dtd"
   xmlns:inkscape="http://www.inkscape.org/namespaces/inkscape"
   width="78"
   height="76.60157"
   viewBox="0 0 78 76.60157"
   id="svg2"
   version="1.1"
   inkscape:version="0.91 r13725"
   sodipodi:docname="m4.svg">
  <defs
     id="defs4" />
  <sodipodi:namedview
     id="base"
     pagecolor="#ffffff"
     bordercolor="#666666"
     borderopacity="1.0"
     inkscape:pageopacity="0.0"
     inkscape:pageshadow="2"
     inkscape:zoom="5.6"
     inkscape:cx="79.941358"
     inkscape:cy="45.515927"
     inkscape:document-units="px"
     inkscape:current-layer="g8277"
     showgrid="false"
     fit-margin-top="0"
     fit-margin-left="0"
     fit-margin-right="0"
     fit-margin-bottom="0"
     inkscape:window-width="1920"
     inkscape:window-height="1017"
     inkscape:window-x="1272"
     inkscape:window-y="-8"
     inkscape:window-maximized="1"
     units="px" />
  <metadata
     id="metadata7">
    <rdf:RDF>
      <cc:Work
         rdf:about="">
        <dc:format>image/svg+xml</dc:format>
        <dc:type
           rdf:resource="http://purl.org/dc/dcmitype/StillImage" />
        <dc:title></dc:title>
      </cc:Work>
    </rdf:RDF>
  </metadata>
  <g
     inkscape:label="Layer 1"
     inkscape:groupmode="layer"
     id="layer1"
     transform="translate(-662.56212,-864.5874)">
    <g
       id="g8277"
       transform="matrix(0.70530039,0,0,0.70530039,195.2568,277.36802)">
      <path
         inkscape:connector-curvature="0"
         id="path8275"
         d="m 717.6229,852.30525 a 35.571122,35.571122 0 0 0 -24.27139,9.84945 l 4.92186,4.92186 a 28.588984,28.588984 0 0 1 19.39534,-7.78944 28.588984,28.588984 0 0 1 19.03642,7.12887 l 4.93905,-4.93905 a 35.571122,35.571122 0 0 0 -24.02128,-9.17169 z"
         style="fill:#ff00ed;fill-opacity:0.60000002;stroke:none;stroke-width:85;stroke-linecap:round;stroke-linejoin:round;stroke-miterlimit:4;stroke-dasharray:none;stroke-opacity:1" />
      <path
         inkscape:connector-curvature="0"
         id="path8269"
         d="m 751.94993,877.83669 -6.75277,1.8099 a 28.588984,28.588984 0 0 1 1.24861,7.97655 l 0,0.25201 a 28.588984,28.588984 0 0 1 -21.06397,27.57618 l 1.79844,6.70885 a 35.571122,35.571122 0 0 0 26.24739,-34.28503 l 0,-0.3131 a 35.571122,35.571122 0 0 0 -1.4777,-9.72536 z"
         style="fill:#ff00ed;fill-opacity:0.60000002;stroke:none;stroke-width:85;stroke-linecap:round;stroke-linejoin:round;stroke-miterlimit:4;stroke-dasharray:none;stroke-opacity:1" />
      <path
         inkscape:connector-curvature="0"
         id="path8267"
         d="m 683.65288,878.18034 a 35.571122,35.571122 0 0 0 -1.36697,9.85137 35.571122,35.571122 0 0 0 24.95488,33.75045 l 1.80417,-6.72985 a 28.588984,28.588984 0 0 1 -19.77718,-27.05115 28.588984,28.588984 0 0 1 1.13596,-8.01283 l -6.75086,-1.80799 z"
         style="fill:#ff00ed;fill-opacity:0.60000002;stroke:none;stroke-width:85;stroke-linecap:round;stroke-linejoin:round;stroke-miterlimit:4;stroke-dasharray:none;stroke-opacity:1" />
      <path
         d="m 744.00247,887.87524 a 26.145235,26.145235 0 0 1 -26.08762,26.14518 26.145235,26.145235 0 0 1 -26.20259,-26.02996 26.145235,26.145235 0 0 1 25.97215,-26.25988 26.145235,26.145235 0 0 1 26.31705,25.91423"
         sodipodi:open="true"
         sodipodi:end="6.2743714"
         sodipodi:start="0"
         sodipodi:ry="26.145235"
         sodipodi:rx="26.145235"
         sodipodi:cy="887.87524"
         sodipodi:cx="717.85724"
         sodipodi:type="arc"
         id="path8079"
         style="fill:#ff00ed;fill-opacity:1;stroke:none;stroke-width:85;stroke-linecap:round;stroke-linejoin:round;stroke-miterlimit:4;stroke-dasharray:none;stroke-opacity:1" />
      <path
         inkscape:connector-curvature="0"
         id="path8263"
         d="m 717.55417,842.00713 a 45.869777,45.869777 0 0 0 -31.47855,12.87169 l 5.53089,5.53089 a 38.014871,38.014871 0 0 1 25.9992,-10.54821 38.014871,38.014871 0 0 1 25.76246,9.89145 l 5.56908,-5.56908 a 45.869777,45.869777 0 0 0 -31.38308,-12.17674 z"
         style="fill:#ff00ed;fill-opacity:0.3019608;stroke:none;stroke-width:85;stroke-linecap:round;stroke-linejoin:round;stroke-miterlimit:4;stroke-dasharray:none;stroke-opacity:1" />
      <path
         inkscape:connector-curvature="0"
         id="path8257"
         d="m 761.88147,875.17529 -7.58708,2.03328 a 38.014871,38.014871 0 0 1 1.57699,10.33247 l 0,0.33411 a 38.014871,38.014871 0 0 1 -28.05156,36.67532 l 2.02182,7.54508 a 45.869777,45.869777 0 0 0 33.886,-44.2204 l -0.002,-0.40474 a 45.869777,45.869777 0 0 0 -1.84427,-12.29512 z"
         style="fill:#ff00ed;fill-opacity:0.3019608;stroke:none;stroke-width:85;stroke-linecap:round;stroke-linejoin:round;stroke-miterlimit:4;stroke-dasharray:none;stroke-opacity:1" />
      <path
         inkscape:connector-curvature="0"
         id="path8255"
         d="m 673.71751,875.51895 a 45.869777,45.869777 0 0 0 -1.72971,12.55857 45.869777,45.869777 0 0 0 32.58776,43.65529 l 2.02374,-7.55271 a 38.014871,38.014871 0 0 1 -26.75714,-36.13693 38.014871,38.014871 0 0 1 1.46816,-10.49095 l -7.59281,-2.03327 z"
         style="fill:#ff00ed;fill-opacity:0.3019608;stroke:none;stroke-width:85;stroke-linecap:round;stroke-linejoin:round;stroke-miterlimit:4;stroke-dasharray:none;stroke-opacity:1" />
      <path
         inkscape:connector-curvature="0"
         id="path8251"
         d="m 717.49116,832.58152 a 55.295663,55.295663 0 0 0 -38.07475,15.63808 l 4.65648,4.65649 a 48.662633,48.662633 0 0 1 33.46219,-13.66208 48.662633,48.662633 0 0 1 33.35907,13.01296 l 4.71758,-4.71758 a 55.295663,55.295663 0 0 0 -38.12057,-14.92787 z"
         style="fill:#ff00ed;fill-opacity:0.10196079;stroke:none;stroke-width:85;stroke-linecap:round;stroke-linejoin:round;stroke-miterlimit:4;stroke-dasharray:none;stroke-opacity:1" />
      <path
         inkscape:connector-curvature="0"
         id="path8245"
         d="m 770.97298,872.73919 -6.40147,1.71634 a 48.662633,48.662633 0 0 1 1.94735,12.99006 l 0.002,0.42956 A 48.662633,48.662633 0 0 1 730.5748,934.8314 l 1.70299,6.35757 a 55.295663,55.295663 0 0 0 40.87551,-53.31382 l -0.002,-0.48684 a 55.295663,55.295663 0 0 0 -2.17838,-14.64912 z"
         style="fill:#ff00ed;fill-opacity:0.10196079;stroke:none;stroke-width:85;stroke-linecap:round;stroke-linejoin:round;stroke-miterlimit:4;stroke-dasharray:none;stroke-opacity:1" />
      <path
         inkscape:connector-curvature="0"
         id="path8243"
         d="m 664.6241,873.08092 a 55.295663,55.295663 0 0 0 -2.06192,15.03861 55.295663,55.295663 0 0 0 39.57346,52.72005 l 1.7068,-6.37665 a 48.662633,48.662633 0 0 1 -34.64777,-46.37395 48.662633,48.662633 0 0 1 1.84427,-13.28788 l -6.41484,-1.72018 z"
         style="fill:#ff00ed;fill-opacity:0.10196079;stroke:none;stroke-width:85;stroke-linecap:round;stroke-linejoin:round;stroke-miterlimit:4;stroke-dasharray:none;stroke-opacity:1" />
    </g>
  </g>
</svg>
