<?xml version="1.0" encoding="UTF-8" standalone="no"?>
<svg
   xmlns:dc="http://purl.org/dc/elements/1.1/"
   xmlns:cc="http://creativecommons.org/ns#"
   xmlns:rdf="http://www.w3.org/1999/02/22-rdf-syntax-ns#"
   xmlns:svg="http://www.w3.org/2000/svg"
   xmlns="http://www.w3.org/2000/svg"
   version="1.1"
   id="svg2"
   viewBox="0 0 90 88.386429"
   height="88.386429"
   width="90">
  <defs
     id="defs4" />
  <metadata
     id="metadata7">
    <rdf:RDF>
      <cc:Work
         rdf:about="">
        <dc:format>image/svg+xml</dc:format>
        <dc:type
           rdf:resource="http://purl.org/dc/dcmitype/StillImage" />
        <dc:title></dc:title>
      </cc:Work>
    </rdf:RDF>
  </metadata>
  <g
     transform="translate(-662.56212,-852.80254)"
     id="layer1">
    <g
       transform="matrix(0.81380814,0,0,0.81380814,123.36367,175.24172)"
       id="g8277">
      <path
         style="fill:#9c00ff;fill-opacity:0.6;stroke:none;stroke-width:85;stroke-linecap:round;stroke-linejoin:round;stroke-miterlimit:4;stroke-dasharray:none;stroke-opacity:1"
         d="m 717.6229,852.30525 a 35.571122,35.571122 0 0 0 -24.27139,9.84945 l 4.92186,4.92186 a 28.588984,28.588984 0 0 1 19.39534,-7.78944 28.588984,28.588984 0 0 1 19.03642,7.12887 l 4.93905,-4.93905 a 35.571122,35.571122 0 0 0 -24.02128,-9.17169 z"
         id="path8275" />
      <path
         style="fill:#9c00ff;fill-opacity:0.6;stroke:none;stroke-width:85;stroke-linecap:round;stroke-linejoin:round;stroke-miterlimit:4;stroke-dasharray:none;stroke-opacity:1"
         d="m 751.94993,877.83669 -6.75277,1.8099 a 28.588984,28.588984 0 0 1 1.24861,7.97655 l 0,0.25201 a 28.588984,28.588984 0 0 1 -21.06397,27.57618 l 1.79844,6.70885 a 35.571122,35.571122 0 0 0 26.24739,-34.28503 l 0,-0.3131 a 35.571122,35.571122 0 0 0 -1.4777,-9.72536 z"
         id="path8269" />
      <path
         style="fill:#9c00ff;fill-opacity:0.6;stroke:none;stroke-width:85;stroke-linecap:round;stroke-linejoin:round;stroke-miterlimit:4;stroke-dasharray:none;stroke-opacity:1"
         d="m 683.65288,878.18034 a 35.571122,35.571122 0 0 0 -1.36697,9.85137 35.571122,35.571122 0 0 0 24.95488,33.75045 l 1.80417,-6.72985 a 28.588984,28.588984 0 0 1 -19.77718,-27.05115 28.588984,28.588984 0 0 1 1.13596,-8.01283 l -6.75086,-1.80799 z"
         id="path8267" />
      <path
         style="fill:#9c00ff;fill-opacity:1;stroke:none;stroke-width:85;stroke-linecap:round;stroke-linejoin:round;stroke-miterlimit:4;stroke-dasharray:none;stroke-opacity:1"
         id="path8079"
         d="m 744.00247,887.87524 a 26.145235,26.145235 0 0 1 -26.08762,26.14518 26.145235,26.145235 0 0 1 -26.20259,-26.02996 26.145235,26.145235 0 0 1 25.97215,-26.25988 26.145235,26.145235 0 0 1 26.31705,25.91423" />
      <path
         style="fill:#9c00ff;fill-opacity:0.3;stroke:none;stroke-width:85;stroke-linecap:round;stroke-linejoin:round;stroke-miterlimit:4;stroke-dasharray:none;stroke-opacity:1"
         d="m 717.55417,842.00713 a 45.869777,45.869777 0 0 0 -31.47855,12.87169 l 5.53089,5.53089 a 38.014871,38.014871 0 0 1 25.9992,-10.54821 38.014871,38.014871 0 0 1 25.76246,9.89145 l 5.56908,-5.56908 a 45.869777,45.869777 0 0 0 -31.38308,-12.17674 z"
         id="path8263" />
      <path
         style="fill:#9c00ff;fill-opacity:0.3;stroke:none;stroke-width:85;stroke-linecap:round;stroke-linejoin:round;stroke-miterlimit:4;stroke-dasharray:none;stroke-opacity:1"
         d="m 761.88147,875.17529 -7.58708,2.03328 a 38.014871,38.014871 0 0 1 1.57699,10.33247 l 0,0.33411 a 38.014871,38.014871 0 0 1 -28.05156,36.67532 l 2.02182,7.54508 a 45.869777,45.869777 0 0 0 33.886,-44.2204 l -0.002,-0.40474 a 45.869777,45.869777 0 0 0 -1.84427,-12.29512 z"
         id="path8257" />
      <path
         style="fill:#9c00ff;fill-opacity:0.3;stroke:none;stroke-width:85;stroke-linecap:round;stroke-linejoin:round;stroke-miterlimit:4;stroke-dasharray:none;stroke-opacity:1"
         d="m 673.71751,875.51895 a 45.869777,45.869777 0 0 0 -1.72971,12.55857 45.869777,45.869777 0 0 0 32.58776,43.65529 l 2.02374,-7.55271 a 38.014871,38.014871 0 0 1 -26.75714,-36.13693 38.014871,38.014871 0 0 1 1.46816,-10.49095 l -7.59281,-2.03327 z"
         id="path8255" />
      <path
         style="fill:#9c00ff;fill-opacity:0.1;stroke:none;stroke-width:85;stroke-linecap:round;stroke-linejoin:round;stroke-miterlimit:4;stroke-dasharray:none;stroke-opacity:1"
         d="m 717.49116,832.58152 a 55.295663,55.295663 0 0 0 -38.07475,15.63808 l 4.65648,4.65649 a 48.662633,48.662633 0 0 1 33.46219,-13.66208 48.662633,48.662633 0 0 1 33.35907,13.01296 l 4.71758,-4.71758 a 55.295663,55.295663 0 0 0 -38.12057,-14.92787 z"
         id="path8251" />
      <path
         style="fill:#9c00ff;fill-opacity:0.1;stroke:none;stroke-width:85;stroke-linecap:round;stroke-linejoin:round;stroke-miterlimit:4;stroke-dasharray:none;stroke-opacity:1"
         d="m 770.97298,872.73919 -6.40147,1.71634 a 48.662633,48.662633 0 0 1 1.94735,12.99006 l 0.002,0.42956 A 48.662633,48.662633 0 0 1 730.5748,934.8314 l 1.70299,6.35757 a 55.295663,55.295663 0 0 0 40.87551,-53.31382 l -0.002,-0.48684 a 55.295663,55.295663 0 0 0 -2.17838,-14.64912 z"
         id="path8245" />
      <path
         style="fill:#9c00ff;fill-opacity:0.1;stroke:none;stroke-width:85;stroke-linecap:round;stroke-linejoin:round;stroke-miterlimit:4;stroke-dasharray:none;stroke-opacity:1"
         d="m 664.6241,873.08092 a 55.295663,55.295663 0 0 0 -2.06192,15.03861 55.295663,55.295663 0 0 0 39.57346,52.72005 l 1.7068,-6.37665 a 48.662633,48.662633 0 0 1 -34.64777,-46.37395 48.662633,48.662633 0 0 1 1.84427,-13.28788 l -6.41484,-1.72018 z"
         id="path8243" />
    </g>
  </g>
</svg>
